<?xml version="1.0" standalone="no"?>
<!DOCTYPE svg PUBLIC "-//W3C//DTD SVG 20010904//EN"
 "http://www.w3.org/TR/2001/REC-SVG-20010904/DTD/svg10.dtd">
<svg version="1.0" xmlns="http://www.w3.org/2000/svg"
 width="656.000000pt" height="656.000000pt" viewBox="0 0 656.000000 656.000000"
 preserveAspectRatio="xMidYMid meet">
<metadata>
Created by potrace 1.14, written by Peter Selinger 2001-2017
</metadata>
<g transform="translate(0.000000,656.000000) scale(0.100000,-0.100000)"
fill="#000000" stroke="none">
<path d="M3015 6544 c-16 -2 -75 -9 -130 -15 -503 -56 -1031 -257 -1463 -556
-316 -219 -616 -519 -835 -835 -509 -734 -694 -1650 -512 -2533 151 -731 565
-1409 1150 -1881 405 -327 886 -555 1387 -658 264 -54 331 -60 673 -60 283 0
337 2 465 22 377 59 657 147 985 307 340 167 626 375 895 651 443 454 739
1008 864 1616 54 264 60 331 60 673 0 338 -10 452 -65 700 -175 798 -634 1491
-1307 1974 -424 303 -900 492 -1452 576 -99 16 -636 30 -715 19z m605 -309
c78 -8 210 -29 293 -46 274 -55 689 -207 900 -331 89 -52 357 -238 427 -296
74 -62 338 -323 374 -369 15 -21 -23 14 -85 78 -240 246 -423 388 -694 538
-60 34 -118 61 -128 61 -10 0 -29 7 -42 16 -14 9 -25 14 -25 11 0 -4 -20 2
-44 13 -59 25 -112 30 -108 10 2 -10 -6 -6 -23 10 -14 13 -36 25 -48 26 -30 1
-227 67 -222 73 2 3 -9 7 -23 7 -15 1 -92 18 -172 38 -80 20 -174 43 -210 51
-86 20 -277 34 -475 36 -90 0 -149 4 -135 9 l25 7 -25 7 c-14 4 -55 2 -90 -3
-36 -6 -82 -11 -103 -11 -23 0 -36 -4 -32 -10 3 -5 5 -10 3 -10 -2 0 -67 -11
-145 -24 -78 -14 -152 -22 -165 -18 -27 8 -36 32 -11 32 9 0 14 2 11 5 -7 8
-147 -21 -228 -46 -279 -87 -444 -153 -627 -251 -62 -32 -113 -57 -113 -55 0
3 30 23 68 45 275 163 634 293 999 362 251 48 615 62 873 35z m0 -160 c289
-36 490 -88 780 -205 412 -165 843 -484 1130 -835 71 -87 290 -413 290 -432 0
-4 -49 66 -109 155 -134 200 -195 277 -330 416 -107 110 -290 270 -384 338
-211 149 -496 306 -539 295 -25 -7 -61 10 -53 24 4 5 -4 9 -17 9 -13 0 -29 5
-36 12 -9 9 -12 9 -12 0 0 -7 -5 -12 -11 -12 -6 0 -9 6 -6 13 3 9 -5 12 -29 9
-19 -2 -34 -8 -34 -13 0 -5 -9 -9 -20 -9 -13 0 -20 -7 -20 -20 0 -17 -7 -20
-50 -20 -36 0 -50 -4 -50 -14 0 -20 -152 -9 -202 14 -28 13 -52 17 -91 13 -38
-4 -63 0 -85 11 -17 9 -48 16 -69 16 -27 0 -34 3 -23 10 8 5 12 11 10 13 -13
12 -71 37 -85 37 -8 0 -15 6 -15 14 0 10 -15 17 -42 20 -24 3 -59 8 -78 11
-19 4 -69 10 -110 13 -45 4 -85 14 -101 25 -21 14 -163 47 -202 47 -5 0 -5 4
-2 10 9 15 -140 2 -297 -26 -75 -13 -197 -43 -270 -65 -73 -22 -149 -45 -168
-51 -62 -18 -228 -87 -310 -128 -114 -57 -237 -131 -385 -232 -71 -49 -114
-75 -95 -58 75 65 351 242 475 303 290 144 651 251 965 286 52 6 109 13 125
15 90 10 443 4 555 -9z m-1186 -7 c-3 -4 10 -8 28 -9 32 0 32 0 8 -11 -42 -17
-117 -19 -117 -3 0 10 8 12 27 8 15 -3 31 0 34 6 5 7 1 8 -10 4 -11 -4 -15 -3
-10 5 3 6 15 10 26 9 10 -1 16 -5 14 -9z m2131 -178 c3 -5 2 -10 -4 -10 -5 0
-13 5 -16 10 -3 6 -2 10 4 10 5 0 13 -4 16 -10z m-1050 -90 c148 -14 370 -53
480 -85 121 -35 337 -121 466 -185 223 -111 485 -306 680 -507 402 -415 621
-854 710 -1428 26 -171 36 -441 20 -571 -53 -422 -199 -838 -385 -1096 -22
-32 -59 -85 -80 -120 -49 -76 -309 -353 -469 -499 -140 -127 -274 -221 -447
-312 -286 -150 -543 -236 -855 -284 -156 -25 -536 -24 -694 1 -158 24 -368 78
-503 127 -139 50 -385 170 -495 241 -45 29 -108 69 -140 90 -75 47 -171 126
-306 251 -265 246 -488 563 -625 890 -73 172 -83 206 -121 372 -50 224 -56
281 -56 565 1 244 3 277 28 410 53 287 118 486 233 710 108 211 195 341 365
545 140 169 349 347 584 496 253 160 630 308 902 354 257 43 492 55 708 35z
m-1845 -15 c0 -2 -10 -9 -22 -15 -22 -11 -22 -10 -4 4 21 17 26 19 26 11z
m-210 -338 c0 -2 -10 -12 -22 -23 l-23 -19 19 23 c18 21 26 27 26 19z m-91
-89 c-2 -2 -20 -16 -39 -33 l-35 -30 34 37 c19 21 37 36 39 33 3 -3 3 -6 1 -7z
m-149 -131 c0 -2 -10 -12 -22 -23 l-23 -19 19 23 c18 21 26 27 26 19z m4618
-662 c-3 -3 -9 2 -12 12 -6 14 -5 15 5 6 7 -7 10 -15 7 -18z m101 -210 c0 -5
-20 28 -44 75 -24 47 -44 90 -44 95 0 6 20 -28 44 -75 24 -47 44 -89 44 -95z"/>
<path d="M4250 5890 c0 -6 7 -10 15 -10 8 0 15 2 15 4 0 2 -7 6 -15 10 -8 3
-15 1 -15 -4z"/>
<path d="M3070 5680 c-313 -23 -602 -106 -919 -264 -186 -92 -387 -233 -586
-409 -95 -85 -114 -105 -260 -287 -173 -216 -340 -545 -419 -825 -39 -141 -77
-367 -87 -520 -25 -382 67 -814 248 -1167 67 -130 89 -166 229 -368 99 -143
364 -415 504 -517 269 -196 585 -354 860 -430 409 -113 842 -119 1225 -19 425
112 771 297 1069 571 129 118 367 381 403 445 14 25 46 77 71 115 105 161 233
448 276 622 62 246 78 351 83 548 7 269 -18 449 -104 755 -97 341 -301 697
-557 970 -72 76 -267 254 -337 307 -131 99 -363 228 -559 310 -315 132 -739
193 -1140 163z m435 -120 c488 -41 1008 -273 1348 -602 40 -39 52 -54 27 -34
-25 20 -85 70 -135 110 -136 110 -236 175 -385 248 -135 66 -255 118 -273 118
-5 0 -4 -7 3 -15 7 -8 8 -15 2 -15 -12 0 -34 25 -27 31 2 3 -5 5 -15 5 -10 0
-17 -2 -14 -5 7 -8 -56 -31 -84 -31 -26 0 -83 -15 -113 -30 -9 -5 -48 -12 -88
-16 -68 -6 -71 -6 -71 15 0 19 -5 21 -60 21 -52 0 -60 2 -60 19 0 14 -5 18
-20 14 -11 -3 -20 -12 -20 -19 0 -8 -9 -14 -20 -14 -13 0 -20 7 -20 20 0 13
-7 20 -20 20 -13 0 -20 7 -20 20 0 13 -7 20 -20 20 -13 0 -20 7 -20 20 0 13
-7 20 -20 20 -22 0 -28 34 -7 44 6 3 2 3 -10 0 -13 -3 -23 -1 -23 5 0 6 20 10
45 9 25 0 49 2 52 6 12 12 -323 5 -449 -10 -297 -34 -564 -119 -858 -275 -41
-21 -66 -32 -55 -23 60 48 359 182 530 238 245 80 583 112 900 86z m-82 -287
c-13 -2 -33 -2 -45 0 -13 2 -3 4 22 4 25 0 35 -2 23 -4z m82 -3 c8 -13 -15
-13 -35 0 -12 8 -11 10 7 10 12 0 25 -4 28 -10z m68 -17 c-7 -2 -19 -2 -25 0
-7 3 -2 5 12 5 14 0 19 -2 13 -5z m62 -3 l20 -9 -20 0 c-11 0 -27 4 -35 9 -13
9 -13 10 0 9 8 0 24 -4 35 -9z m100 -21 c5 -7 -5 -8 -32 -3 -51 9 -54 14 -10
14 20 0 39 -5 42 -11z m58 -16 c-7 -2 -21 -2 -30 0 -10 3 -4 5 12 5 17 0 24
-2 18 -5z m-266 -54 c107 -14 347 -74 446 -110 221 -81 517 -270 686 -438 111
-111 248 -289 301 -391 22 -44 -5 -8 -78 101 -174 261 -467 500 -812 662 -89
41 -128 54 -346 112 -168 44 -261 55 -454 55 -258 -1 -449 -35 -680 -123 -222
-85 -470 -230 -620 -362 -57 -50 -56 -49 10 15 244 233 695 438 1050 479 110
12 406 13 497 0z m-1597 -22 c0 -2 -20 -18 -45 -36 -25 -18 -45 -30 -45 -27 0
4 81 66 87 66 2 0 3 -1 3 -3z m3065 -309 l50 -51 -57 48 c-32 27 -58 50 -58
52 0 13 23 -5 65 -49z m86 -95 c13 -16 12 -17 -3 -4 -17 13 -22 21 -14 21 2 0
10 -8 17 -17z m-911 -131 c0 -24 -50 -102 -103 -160 -72 -79 -219 -262 -292
-362 -37 -52 -94 -126 -125 -165 -31 -38 -81 -106 -110 -150 -30 -44 -83 -118
-119 -165 l-65 -85 55 -3 c30 -2 215 -2 412 0 282 2 357 0 357 -10 0 -7 -56
-72 -124 -145 -68 -72 -138 -150 -157 -172 -44 -53 -114 -128 -354 -381 -411
-432 -497 -524 -618 -665 -178 -205 -337 -347 -337 -299 0 13 35 89 136 298
46 95 84 175 84 177 0 3 29 65 65 140 35 74 78 168 95 207 16 40 50 109 75
153 48 85 108 209 120 246 l7 22 -341 -5 c-286 -4 -341 -3 -341 9 0 24 199
398 266 498 18 28 38 63 43 78 6 16 33 65 60 110 76 129 132 227 167 295 18
35 39 71 46 79 18 22 120 209 172 318 24 50 58 103 75 119 l30 29 353 -4 c296
-4 407 -2 461 9 4 1 7 -6 7 -16z m-2310 -46 c0 -2 -8 -10 -17 -17 -16 -13 -17
-12 -4 4 13 16 21 21 21 13z m3130 -386 c6 -11 8 -20 6 -20 -3 0 -10 9 -16 20
-6 11 -8 20 -6 20 3 0 10 -9 16 -20z m-3169 -2277 c13 -16 12 -17 -3 -4 -10 7
-18 15 -18 17 0 8 8 3 21 -13z m669 -453 c8 -5 11 -10 5 -10 -5 0 -17 5 -25
10 -8 5 -10 10 -5 10 6 0 17 -5 25 -10z m70 -30 c8 -5 11 -10 5 -10 -5 0 -17
5 -25 10 -8 5 -10 10 -5 10 6 0 17 -5 25 -10z m50 -20 c8 -5 11 -10 5 -10 -5
0 -17 5 -25 10 -8 5 -10 10 -5 10 6 0 17 -5 25 -10z m973 -107 c-7 -2 -19 -2
-25 0 -7 3 -2 5 12 5 14 0 19 -2 13 -5z m-450 -10 c-7 -2 -19 -2 -25 0 -7 3
-2 5 12 5 14 0 19 -2 13 -5z m345 0 c-16 -2 -40 -2 -55 0 -16 2 -3 4 27 4 30
0 43 -2 28 -4z m-145 -10 c-24 -2 -62 -2 -85 0 -24 2 -5 4 42 4 47 0 66 -2 43
-4z"/>
<path d="M3553 5523 c9 -2 25 -2 35 0 9 3 1 5 -18 5 -19 0 -27 -2 -17 -5z"/>
<path d="M3957 5439 c13 -13 67 -23 60 -12 -4 6 -20 13 -37 15 -17 3 -27 1
-23 -3z"/>
</g>
</svg>
